<mxfile host="Electron" agent="Mozilla/5.0 (Windows NT 10.0; Win64; x64) AppleWebKit/537.36 (KHTML, like Gecko) draw.io/24.7.17 Chrome/128.0.6613.36 Electron/32.0.1 Safari/537.36" version="24.7.17">
  <diagram name="Page-1" id="zJ4nogCzSPYaLzftWAEm">
    <mxGraphModel dx="880" dy="532" grid="1" gridSize="10" guides="1" tooltips="1" connect="1" arrows="1" fold="1" page="1" pageScale="1" pageWidth="850" pageHeight="1100" math="0" shadow="0">
      <root>
        <mxCell id="0" />
        <mxCell id="1" parent="0" />
        <mxCell id="TCm_C1WBM27eF6fTwuce-67" style="rounded=0;orthogonalLoop=1;jettySize=auto;html=1;entryX=0;entryY=0.5;entryDx=0;entryDy=0;endArrow=none;endFill=0;exitX=1;exitY=0.25;exitDx=0;exitDy=0;" parent="1" source="TCm_C1WBM27eF6fTwuce-1" target="TCm_C1WBM27eF6fTwuce-64" edge="1">
          <mxGeometry relative="1" as="geometry">
            <mxPoint x="220" y="139" as="sourcePoint" />
            <mxPoint x="375" y="139" as="targetPoint" />
          </mxGeometry>
        </mxCell>
        <mxCell id="TCm_C1WBM27eF6fTwuce-1" value="Employee" style="rounded=1;arcSize=10;whiteSpace=wrap;html=1;align=center;" parent="1" vertex="1">
          <mxGeometry x="120" y="120" width="100" height="40" as="geometry" />
        </mxCell>
        <mxCell id="TCm_C1WBM27eF6fTwuce-14" value="" style="rounded=0;orthogonalLoop=1;jettySize=auto;html=1;endArrow=none;endFill=0;" parent="1" source="TCm_C1WBM27eF6fTwuce-3" target="TCm_C1WBM27eF6fTwuce-1" edge="1">
          <mxGeometry relative="1" as="geometry" />
        </mxCell>
        <mxCell id="TCm_C1WBM27eF6fTwuce-3" value="SSN" style="ellipse;whiteSpace=wrap;html=1;align=center;fontStyle=4;" parent="1" vertex="1">
          <mxGeometry x="20" y="125" width="70" height="30" as="geometry" />
        </mxCell>
        <mxCell id="TCm_C1WBM27eF6fTwuce-16" style="rounded=0;orthogonalLoop=1;jettySize=auto;html=1;exitX=0.5;exitY=1;exitDx=0;exitDy=0;entryX=0;entryY=0;entryDx=0;entryDy=0;endArrow=none;endFill=0;" parent="1" source="TCm_C1WBM27eF6fTwuce-4" target="TCm_C1WBM27eF6fTwuce-1" edge="1">
          <mxGeometry relative="1" as="geometry" />
        </mxCell>
        <mxCell id="TCm_C1WBM27eF6fTwuce-4" value="BirthDate" style="ellipse;whiteSpace=wrap;html=1;align=center;" parent="1" vertex="1">
          <mxGeometry x="40" y="60" width="80" height="30" as="geometry" />
        </mxCell>
        <mxCell id="TCm_C1WBM27eF6fTwuce-18" style="rounded=0;orthogonalLoop=1;jettySize=auto;html=1;entryX=0.5;entryY=0;entryDx=0;entryDy=0;endArrow=none;endFill=0;" parent="1" target="TCm_C1WBM27eF6fTwuce-1" edge="1">
          <mxGeometry relative="1" as="geometry">
            <mxPoint x="170" y="90" as="sourcePoint" />
          </mxGeometry>
        </mxCell>
        <mxCell id="TCm_C1WBM27eF6fTwuce-5" value="Name" style="ellipse;whiteSpace=wrap;html=1;align=center;" parent="1" vertex="1">
          <mxGeometry x="132.5" y="59" width="80" height="30" as="geometry" />
        </mxCell>
        <mxCell id="TCm_C1WBM27eF6fTwuce-17" value="" style="rounded=0;orthogonalLoop=1;jettySize=auto;html=1;endArrow=none;endFill=0;entryX=0.75;entryY=0;entryDx=0;entryDy=0;exitX=0.5;exitY=1;exitDx=0;exitDy=0;" parent="1" source="TCm_C1WBM27eF6fTwuce-6" target="TCm_C1WBM27eF6fTwuce-1" edge="1">
          <mxGeometry relative="1" as="geometry" />
        </mxCell>
        <mxCell id="TCm_C1WBM27eF6fTwuce-6" value="Gender" style="ellipse;whiteSpace=wrap;html=1;align=center;" parent="1" vertex="1">
          <mxGeometry x="220" y="59" width="80" height="30" as="geometry" />
        </mxCell>
        <mxCell id="TCm_C1WBM27eF6fTwuce-8" value="FName" style="ellipse;whiteSpace=wrap;html=1;align=center;" parent="1" vertex="1">
          <mxGeometry x="100" y="20" width="60" height="20" as="geometry" />
        </mxCell>
        <mxCell id="TCm_C1WBM27eF6fTwuce-9" value="LName" style="ellipse;whiteSpace=wrap;html=1;align=center;" parent="1" vertex="1">
          <mxGeometry x="180" y="20" width="60" height="20" as="geometry" />
        </mxCell>
        <mxCell id="TCm_C1WBM27eF6fTwuce-19" style="rounded=0;orthogonalLoop=1;jettySize=auto;html=1;endArrow=none;endFill=0;exitX=0.5;exitY=1;exitDx=0;exitDy=0;entryX=0;entryY=0;entryDx=0;entryDy=0;" parent="1" source="TCm_C1WBM27eF6fTwuce-8" target="TCm_C1WBM27eF6fTwuce-5" edge="1">
          <mxGeometry relative="1" as="geometry">
            <mxPoint x="127.5" y="109" as="sourcePoint" />
            <mxPoint x="147.5" y="89" as="targetPoint" />
          </mxGeometry>
        </mxCell>
        <mxCell id="TCm_C1WBM27eF6fTwuce-20" style="rounded=0;orthogonalLoop=1;jettySize=auto;html=1;endArrow=none;endFill=0;exitX=0.5;exitY=1;exitDx=0;exitDy=0;" parent="1" source="TCm_C1WBM27eF6fTwuce-9" edge="1">
          <mxGeometry relative="1" as="geometry">
            <mxPoint x="200.48000000000002" y="110" as="sourcePoint" />
            <mxPoint x="190" y="60" as="targetPoint" />
          </mxGeometry>
        </mxCell>
        <mxCell id="TCm_C1WBM27eF6fTwuce-68" style="rounded=0;orthogonalLoop=1;jettySize=auto;html=1;entryX=1;entryY=0.5;entryDx=0;entryDy=0;endArrow=none;endFill=0;shape=link;" parent="1" source="TCm_C1WBM27eF6fTwuce-23" target="TCm_C1WBM27eF6fTwuce-64" edge="1">
          <mxGeometry relative="1" as="geometry" />
        </mxCell>
        <mxCell id="TCm_C1WBM27eF6fTwuce-23" value="Department&amp;nbsp;" style="rounded=1;arcSize=10;whiteSpace=wrap;html=1;align=center;" parent="1" vertex="1">
          <mxGeometry x="650" y="120" width="100" height="40" as="geometry" />
        </mxCell>
        <mxCell id="TCm_C1WBM27eF6fTwuce-29" value="" style="rounded=0;orthogonalLoop=1;jettySize=auto;html=1;endArrow=none;endFill=0;" parent="1" source="TCm_C1WBM27eF6fTwuce-24" target="TCm_C1WBM27eF6fTwuce-23" edge="1">
          <mxGeometry relative="1" as="geometry" />
        </mxCell>
        <mxCell id="TCm_C1WBM27eF6fTwuce-24" value="DName" style="ellipse;whiteSpace=wrap;html=1;align=center;" parent="1" vertex="1">
          <mxGeometry x="660" y="60" width="80" height="30" as="geometry" />
        </mxCell>
        <mxCell id="TCm_C1WBM27eF6fTwuce-28" style="rounded=0;orthogonalLoop=1;jettySize=auto;html=1;exitX=0;exitY=0.5;exitDx=0;exitDy=0;endArrow=none;endFill=0;" parent="1" source="TCm_C1WBM27eF6fTwuce-26" edge="1">
          <mxGeometry relative="1" as="geometry">
            <mxPoint x="750" y="140" as="targetPoint" />
          </mxGeometry>
        </mxCell>
        <mxCell id="TCm_C1WBM27eF6fTwuce-26" value="DNum" style="ellipse;whiteSpace=wrap;html=1;align=center;fontStyle=4;" parent="1" vertex="1">
          <mxGeometry x="770" y="125" width="70" height="30" as="geometry" />
        </mxCell>
        <mxCell id="TCm_C1WBM27eF6fTwuce-30" style="rounded=0;orthogonalLoop=1;jettySize=auto;html=1;entryX=1;entryY=0;entryDx=0;entryDy=0;endArrow=none;endFill=0;exitX=0.5;exitY=1;exitDx=0;exitDy=0;" parent="1" source="TCm_C1WBM27eF6fTwuce-27" target="TCm_C1WBM27eF6fTwuce-23" edge="1">
          <mxGeometry relative="1" as="geometry" />
        </mxCell>
        <mxCell id="TCm_C1WBM27eF6fTwuce-27" value="Location" style="ellipse;shape=doubleEllipse;margin=3;whiteSpace=wrap;html=1;align=center;" parent="1" vertex="1">
          <mxGeometry x="760" y="60" width="80" height="30" as="geometry" />
        </mxCell>
        <mxCell id="TCm_C1WBM27eF6fTwuce-31" value="Project" style="rounded=1;arcSize=10;whiteSpace=wrap;html=1;align=center;" parent="1" vertex="1">
          <mxGeometry x="650" y="400" width="100" height="40" as="geometry" />
        </mxCell>
        <mxCell id="TCm_C1WBM27eF6fTwuce-32" value="PName" style="ellipse;whiteSpace=wrap;html=1;align=center;" parent="1" vertex="1">
          <mxGeometry x="750" y="480" width="80" height="30" as="geometry" />
        </mxCell>
        <mxCell id="TCm_C1WBM27eF6fTwuce-34" value="City" style="ellipse;whiteSpace=wrap;html=1;align=center;" parent="1" vertex="1">
          <mxGeometry x="660" y="480" width="80" height="30" as="geometry" />
        </mxCell>
        <mxCell id="TCm_C1WBM27eF6fTwuce-36" value="" style="rounded=0;orthogonalLoop=1;jettySize=auto;html=1;endArrow=none;endFill=0;" parent="1" source="TCm_C1WBM27eF6fTwuce-35" target="TCm_C1WBM27eF6fTwuce-31" edge="1">
          <mxGeometry relative="1" as="geometry" />
        </mxCell>
        <mxCell id="TCm_C1WBM27eF6fTwuce-35" value="PNum" style="ellipse;whiteSpace=wrap;html=1;align=center;fontStyle=4;" parent="1" vertex="1">
          <mxGeometry x="770" y="405" width="70" height="30" as="geometry" />
        </mxCell>
        <mxCell id="TCm_C1WBM27eF6fTwuce-37" style="rounded=0;orthogonalLoop=1;jettySize=auto;html=1;entryX=1;entryY=1;entryDx=0;entryDy=0;endArrow=none;endFill=0;exitX=0.5;exitY=0;exitDx=0;exitDy=0;" parent="1" source="TCm_C1WBM27eF6fTwuce-32" target="TCm_C1WBM27eF6fTwuce-31" edge="1">
          <mxGeometry relative="1" as="geometry" />
        </mxCell>
        <mxCell id="TCm_C1WBM27eF6fTwuce-38" style="rounded=0;orthogonalLoop=1;jettySize=auto;html=1;endArrow=none;endFill=0;exitX=0.5;exitY=0;exitDx=0;exitDy=0;" parent="1" source="TCm_C1WBM27eF6fTwuce-34" edge="1">
          <mxGeometry relative="1" as="geometry">
            <mxPoint x="720" y="480" as="sourcePoint" />
            <mxPoint x="700" y="440" as="targetPoint" />
          </mxGeometry>
        </mxCell>
        <mxCell id="TCm_C1WBM27eF6fTwuce-44" value="" style="rounded=0;orthogonalLoop=1;jettySize=auto;html=1;endArrow=none;endFill=0;" parent="1" source="TCm_C1WBM27eF6fTwuce-41" edge="1">
          <mxGeometry relative="1" as="geometry">
            <mxPoint x="120" y="420" as="targetPoint" />
          </mxGeometry>
        </mxCell>
        <mxCell id="TCm_C1WBM27eF6fTwuce-41" value="Name" style="ellipse;whiteSpace=wrap;html=1;align=center;fontStyle=4;" parent="1" vertex="1">
          <mxGeometry x="20" y="405" width="70" height="30" as="geometry" />
        </mxCell>
        <mxCell id="TCm_C1WBM27eF6fTwuce-45" style="rounded=0;orthogonalLoop=1;jettySize=auto;html=1;entryX=0;entryY=1;entryDx=0;entryDy=0;endArrow=none;endFill=0;" parent="1" source="TCm_C1WBM27eF6fTwuce-42" edge="1">
          <mxGeometry relative="1" as="geometry">
            <mxPoint x="120" y="440" as="targetPoint" />
          </mxGeometry>
        </mxCell>
        <mxCell id="TCm_C1WBM27eF6fTwuce-42" value="Gender" style="ellipse;whiteSpace=wrap;html=1;align=center;" parent="1" vertex="1">
          <mxGeometry x="40" y="480" width="80" height="30" as="geometry" />
        </mxCell>
        <mxCell id="TCm_C1WBM27eF6fTwuce-46" value="" style="rounded=0;orthogonalLoop=1;jettySize=auto;html=1;endArrow=none;endFill=0;" parent="1" source="TCm_C1WBM27eF6fTwuce-43" edge="1">
          <mxGeometry relative="1" as="geometry">
            <mxPoint x="180" y="440" as="targetPoint" />
          </mxGeometry>
        </mxCell>
        <mxCell id="TCm_C1WBM27eF6fTwuce-43" value="BirthDate" style="ellipse;whiteSpace=wrap;html=1;align=center;" parent="1" vertex="1">
          <mxGeometry x="140" y="480" width="80" height="30" as="geometry" />
        </mxCell>
        <mxCell id="TCm_C1WBM27eF6fTwuce-47" value="Dependent&amp;nbsp;" style="shape=ext;margin=3;double=1;whiteSpace=wrap;html=1;align=center;" parent="1" vertex="1">
          <mxGeometry x="120" y="405" width="100" height="40" as="geometry" />
        </mxCell>
        <mxCell id="TCm_C1WBM27eF6fTwuce-59" value="" style="rounded=0;orthogonalLoop=1;jettySize=auto;html=1;endArrow=none;endFill=0;" parent="1" source="TCm_C1WBM27eF6fTwuce-48" target="TCm_C1WBM27eF6fTwuce-1" edge="1">
          <mxGeometry relative="1" as="geometry" />
        </mxCell>
        <mxCell id="TCm_C1WBM27eF6fTwuce-48" value="Have" style="shape=rhombus;double=1;perimeter=rhombusPerimeter;whiteSpace=wrap;html=1;align=center;" parent="1" vertex="1">
          <mxGeometry x="120" y="250" width="100" height="60" as="geometry" />
        </mxCell>
        <mxCell id="TCm_C1WBM27eF6fTwuce-55" value="" style="shape=link;html=1;rounded=0;entryX=0.5;entryY=0;entryDx=0;entryDy=0;" parent="1" target="TCm_C1WBM27eF6fTwuce-47" edge="1">
          <mxGeometry relative="1" as="geometry">
            <mxPoint x="170" y="310" as="sourcePoint" />
            <mxPoint x="330" y="310" as="targetPoint" />
          </mxGeometry>
        </mxCell>
        <mxCell id="TCm_C1WBM27eF6fTwuce-60" value="1" style="text;html=1;align=center;verticalAlign=middle;resizable=0;points=[];autosize=1;strokeColor=none;fillColor=none;" parent="1" vertex="1">
          <mxGeometry x="159" y="155" width="30" height="30" as="geometry" />
        </mxCell>
        <mxCell id="TCm_C1WBM27eF6fTwuce-63" value="N" style="text;html=1;align=center;verticalAlign=middle;resizable=0;points=[];autosize=1;strokeColor=none;fillColor=none;" parent="1" vertex="1">
          <mxGeometry x="164" y="378" width="30" height="30" as="geometry" />
        </mxCell>
        <mxCell id="TCm_C1WBM27eF6fTwuce-64" value="Manage&amp;nbsp;" style="shape=rhombus;perimeter=rhombusPerimeter;whiteSpace=wrap;html=1;align=center;" parent="1" vertex="1">
          <mxGeometry x="380" y="90" width="80" height="40" as="geometry" />
        </mxCell>
        <mxCell id="TCm_C1WBM27eF6fTwuce-66" value="" style="rounded=0;orthogonalLoop=1;jettySize=auto;html=1;endArrow=none;endFill=0;" parent="1" source="TCm_C1WBM27eF6fTwuce-65" target="TCm_C1WBM27eF6fTwuce-64" edge="1">
          <mxGeometry relative="1" as="geometry" />
        </mxCell>
        <mxCell id="TCm_C1WBM27eF6fTwuce-65" value="Hire Date" style="ellipse;whiteSpace=wrap;html=1;align=center;" parent="1" vertex="1">
          <mxGeometry x="389" y="40" width="62" height="30" as="geometry" />
        </mxCell>
        <mxCell id="TCm_C1WBM27eF6fTwuce-69" value="1" style="text;html=1;align=center;verticalAlign=middle;resizable=0;points=[];autosize=1;strokeColor=none;fillColor=none;" parent="1" vertex="1">
          <mxGeometry x="215" y="103" width="30" height="30" as="geometry" />
        </mxCell>
        <mxCell id="TCm_C1WBM27eF6fTwuce-70" value="1" style="text;html=1;align=center;verticalAlign=middle;resizable=0;points=[];autosize=1;strokeColor=none;fillColor=none;" parent="1" vertex="1">
          <mxGeometry x="620" y="105" width="30" height="30" as="geometry" />
        </mxCell>
        <mxCell id="TCm_C1WBM27eF6fTwuce-73" style="rounded=0;orthogonalLoop=1;jettySize=auto;html=1;entryX=1;entryY=0.75;entryDx=0;entryDy=0;endArrow=none;endFill=0;exitX=0;exitY=0.5;exitDx=0;exitDy=0;shape=link;" parent="1" source="TCm_C1WBM27eF6fTwuce-72" target="TCm_C1WBM27eF6fTwuce-1" edge="1">
          <mxGeometry relative="1" as="geometry" />
        </mxCell>
        <mxCell id="TCm_C1WBM27eF6fTwuce-74" style="rounded=0;orthogonalLoop=1;jettySize=auto;html=1;entryX=0;entryY=0.75;entryDx=0;entryDy=0;endArrow=none;endFill=0;exitX=1;exitY=0.5;exitDx=0;exitDy=0;" parent="1" source="TCm_C1WBM27eF6fTwuce-72" target="TCm_C1WBM27eF6fTwuce-23" edge="1">
          <mxGeometry relative="1" as="geometry" />
        </mxCell>
        <mxCell id="TCm_C1WBM27eF6fTwuce-72" value="Work" style="shape=rhombus;perimeter=rhombusPerimeter;whiteSpace=wrap;html=1;align=center;" parent="1" vertex="1">
          <mxGeometry x="380" y="151" width="80" height="40" as="geometry" />
        </mxCell>
        <mxCell id="TCm_C1WBM27eF6fTwuce-76" value="1" style="text;html=1;align=center;verticalAlign=middle;resizable=0;points=[];autosize=1;strokeColor=none;fillColor=none;" parent="1" vertex="1">
          <mxGeometry x="622" y="130" width="30" height="30" as="geometry" />
        </mxCell>
        <mxCell id="TCm_C1WBM27eF6fTwuce-77" value="N" style="text;html=1;align=center;verticalAlign=middle;resizable=0;points=[];autosize=1;strokeColor=none;fillColor=none;" parent="1" vertex="1">
          <mxGeometry x="215" y="127" width="30" height="30" as="geometry" />
        </mxCell>
        <mxCell id="TCm_C1WBM27eF6fTwuce-79" value="" style="rounded=0;orthogonalLoop=1;jettySize=auto;html=1;endArrow=none;endFill=0;" parent="1" source="TCm_C1WBM27eF6fTwuce-78" target="TCm_C1WBM27eF6fTwuce-23" edge="1">
          <mxGeometry relative="1" as="geometry" />
        </mxCell>
        <mxCell id="TCm_C1WBM27eF6fTwuce-80" value="" style="rounded=0;orthogonalLoop=1;jettySize=auto;html=1;endArrow=none;endFill=0;shape=link;" parent="1" source="TCm_C1WBM27eF6fTwuce-78" target="TCm_C1WBM27eF6fTwuce-31" edge="1">
          <mxGeometry relative="1" as="geometry" />
        </mxCell>
        <mxCell id="TCm_C1WBM27eF6fTwuce-78" value="Have" style="shape=rhombus;perimeter=rhombusPerimeter;whiteSpace=wrap;html=1;align=center;" parent="1" vertex="1">
          <mxGeometry x="650" y="250" width="100" height="60" as="geometry" />
        </mxCell>
        <mxCell id="TCm_C1WBM27eF6fTwuce-81" value="1" style="text;html=1;align=center;verticalAlign=middle;resizable=0;points=[];autosize=1;strokeColor=none;fillColor=none;" parent="1" vertex="1">
          <mxGeometry x="695" y="156" width="30" height="30" as="geometry" />
        </mxCell>
        <mxCell id="TCm_C1WBM27eF6fTwuce-82" value="N" style="text;html=1;align=center;verticalAlign=middle;resizable=0;points=[];autosize=1;strokeColor=none;fillColor=none;" parent="1" vertex="1">
          <mxGeometry x="695" y="370" width="30" height="30" as="geometry" />
        </mxCell>
        <mxCell id="TCm_C1WBM27eF6fTwuce-85" style="rounded=0;orthogonalLoop=1;jettySize=auto;html=1;entryX=0;entryY=0.5;entryDx=0;entryDy=0;endArrow=none;endFill=0;" parent="1" source="TCm_C1WBM27eF6fTwuce-84" target="TCm_C1WBM27eF6fTwuce-31" edge="1">
          <mxGeometry relative="1" as="geometry" />
        </mxCell>
        <mxCell id="TCm_C1WBM27eF6fTwuce-92" value="" style="rounded=0;orthogonalLoop=1;jettySize=auto;html=1;endArrow=none;endFill=0;" parent="1" source="TCm_C1WBM27eF6fTwuce-84" target="TCm_C1WBM27eF6fTwuce-91" edge="1">
          <mxGeometry relative="1" as="geometry" />
        </mxCell>
        <mxCell id="TCm_C1WBM27eF6fTwuce-84" value="Work" style="shape=rhombus;perimeter=rhombusPerimeter;whiteSpace=wrap;html=1;align=center;" parent="1" vertex="1">
          <mxGeometry x="389" y="280" width="100" height="60" as="geometry" />
        </mxCell>
        <mxCell id="TCm_C1WBM27eF6fTwuce-86" style="rounded=0;orthogonalLoop=1;jettySize=auto;html=1;entryX=0.7;entryY=1;entryDx=0;entryDy=0;endArrow=none;endFill=0;entryPerimeter=0;" parent="1" source="TCm_C1WBM27eF6fTwuce-84" target="TCm_C1WBM27eF6fTwuce-1" edge="1">
          <mxGeometry relative="1" as="geometry" />
        </mxCell>
        <mxCell id="TCm_C1WBM27eF6fTwuce-89" value="N" style="text;html=1;align=center;verticalAlign=middle;resizable=0;points=[];autosize=1;strokeColor=none;fillColor=none;" parent="1" vertex="1">
          <mxGeometry x="207" y="157" width="30" height="30" as="geometry" />
        </mxCell>
        <mxCell id="TCm_C1WBM27eF6fTwuce-90" value="N" style="text;html=1;align=center;verticalAlign=middle;resizable=0;points=[];autosize=1;strokeColor=none;fillColor=none;" parent="1" vertex="1">
          <mxGeometry x="623" y="390" width="30" height="30" as="geometry" />
        </mxCell>
        <mxCell id="TCm_C1WBM27eF6fTwuce-91" value="Working Hours" style="ellipse;whiteSpace=wrap;html=1;align=center;" parent="1" vertex="1">
          <mxGeometry x="394" y="370" width="90" height="40" as="geometry" />
        </mxCell>
        <mxCell id="TCm_C1WBM27eF6fTwuce-94" style="rounded=0;orthogonalLoop=1;jettySize=auto;html=1;endArrow=none;endFill=0;exitX=1;exitY=0.5;exitDx=0;exitDy=0;" parent="1" source="TCm_C1WBM27eF6fTwuce-93" edge="1">
          <mxGeometry relative="1" as="geometry">
            <mxPoint x="130" y="161" as="targetPoint" />
          </mxGeometry>
        </mxCell>
        <mxCell id="TCm_C1WBM27eF6fTwuce-93" value="Supervise&amp;nbsp;" style="shape=rhombus;perimeter=rhombusPerimeter;whiteSpace=wrap;html=1;align=center;" parent="1" vertex="1">
          <mxGeometry x="64" y="187" width="80" height="40" as="geometry" />
        </mxCell>
        <mxCell id="TCm_C1WBM27eF6fTwuce-95" style="rounded=0;orthogonalLoop=1;jettySize=auto;html=1;endArrow=none;endFill=0;exitX=0;exitY=0.5;exitDx=0;exitDy=0;entryX=0;entryY=0.75;entryDx=0;entryDy=0;shape=link;" parent="1" source="TCm_C1WBM27eF6fTwuce-93" target="TCm_C1WBM27eF6fTwuce-1" edge="1">
          <mxGeometry relative="1" as="geometry">
            <mxPoint x="78" y="271" as="sourcePoint" />
            <mxPoint x="120" y="160" as="targetPoint" />
          </mxGeometry>
        </mxCell>
        <mxCell id="TCm_C1WBM27eF6fTwuce-96" value="N" style="text;html=1;align=center;verticalAlign=middle;resizable=0;points=[];autosize=1;strokeColor=none;fillColor=none;" parent="1" vertex="1">
          <mxGeometry x="98" y="151" width="30" height="30" as="geometry" />
        </mxCell>
        <mxCell id="TCm_C1WBM27eF6fTwuce-97" value="1" style="text;html=1;align=center;verticalAlign=middle;resizable=0;points=[];autosize=1;strokeColor=none;fillColor=none;" parent="1" vertex="1">
          <mxGeometry x="125" y="152" width="30" height="30" as="geometry" />
        </mxCell>
      </root>
    </mxGraphModel>
  </diagram>
</mxfile>
